<svg xmlns="http://www.w3.org/2000/svg" xmlns:xlink="http://www.w3.org/1999/xlink" width="379.608" height="126.445" viewBox="0 0 379.608 126.445">
  <defs>
    <linearGradient id="linear-gradient" x1="0.5" y1="1" x2="0.5" y2="0.055" gradientUnits="objectBoundingBox">
      <stop offset="0" stop-color="#f3f8ff" stop-opacity="0"/>
      <stop offset="1" stop-color="#7eb973" stop-opacity="0.196"/>
    </linearGradient>
  </defs>
  <g id="Chart" transform="translate(-0.139 -0.192)">
    <path id="Mask" d="M126.909,0C87.3,0,100.536,68.559,54.457,68.559h0C8.378,68.559,0,120.09,0,120.09H372.89S368.164,86.4,330.932,86.4h0c-20.944,0-10.472-52.26-41.609-52.26h0c-31.141,0-12.848,43.342-45.8,43.342h0c-32.955,0-27.786-25.248-61.42-25.248h0C148.471,52.23,166.515,0,126.909,0Z" transform="translate(3.411 6.521)" fill="url(#linear-gradient)"/>
    <path id="Fill_1" data-name="Fill 1" d="M130.267,0c-21.314,0-28.816,17.443-36.072,34.312C86.621,51.923,79.468,68.557,57.816,68.557c-20.111,0-36.507,9.46-47.418,27.355A82.457,82.457,0,0,0,.04,122.781a3.206,3.206,0,0,0,2.806,3.624,3.454,3.454,0,0,0,.464.04h.123a3.312,3.312,0,0,0,3.247-2.7,77.62,77.62,0,0,1,9.635-24.818C26.09,83,40.056,74.914,57.816,74.914c26.169,0,34.9-20.3,42.6-38.2,7-16.288,13.052-30.356,29.849-30.356,18.192,0,22.375,11.84,27.22,25.543,4.419,12.508,9.429,26.687,27.976,26.687,15.56,0,21.972,5.754,28.758,11.846,7,6.281,14.924,13.4,32.657,13.4,19.211,0,23.5-13.527,26.946-24.4,3.724-11.745,6.627-18.944,18.855-18.944,13.531,0,17.7,10.948,22.514,27.649,3.487,12.1,7.095,24.611,19.1,24.611,33.759,0,38.442,29.675,38.626,30.932a3.306,3.306,0,0,0,3.326,2.759,3.494,3.494,0,0,0,.446-.028,3.214,3.214,0,0,0,2.889-3.569c-.052-.365-5.572-36.453-45.286-36.453-6.41,0-9.043-7.53-12.618-19.927-4.152-14.4-9.321-32.331-29-32.331-17.847,0-21.8,12.469-25.289,23.475-3.906,12.315-6.987,19.863-20.512,19.863-15.054,0-21.067-5.4-28.037-11.654-7.095-6.372-15.137-13.595-33.378-13.595-13.05,0-16.709-8.492-21.607-22.343C159.153,16.57,153.3,0,130.267,0Z" transform="translate(0.139 0.192)" fill="#7eb973"/>
  </g>
</svg>
